<?xml version="1.0" encoding="utf-8"?><svg fill="#FFFFFF" version="1.1" id="Layer_1" xmlns="http://www.w3.org/2000/svg" xmlns:xlink="http://www.w3.org/1999/xlink" x="0px" y="0px" viewBox="0 0 122.88 108.15" style="enable-background:new 0 0 122.88 108.15" xml:space="preserve"><style type="text/css">.st0{fill-rule:evenodd;clip-rule:evenodd;}</style><g><path class="st0" d="M8.27,0h106.33c4.56,0,8.27,3.73,8.27,8.27v82.61c0,4.55-3.73,8.27-8.27,8.27h-8.77 c1.26-2.49,2.31-5.1,3.14-7.8h4.71c0.64,0,1.19-0.25,1.62-0.67c0.43-0.43,0.67-0.99,0.67-1.62V20.6h0.04l0,0H7.23v68.47 c0,0.64,0.25,1.19,0.67,1.62c0.43,0.43,0.99,0.67,1.62,0.67h4.39c0.83,2.71,1.88,5.31,3.14,7.8H8.27C3.73,99.16,0,95.43,0,90.89 V8.27C-0.01,3.73,3.72,0,8.27,0L8.27,0L8.27,0z M59.17,74.26l17.61-11.22c0.16-0.12,0.36-0.16,0.54-0.15 c0.19,0.02,0.38,0.11,0.52,0.25l1.7,1.82c0.14,0.15,0.21,0.34,0.22,0.54c0.01,0.19-0.06,0.39-0.19,0.55 c-4.53,5.1-8.83,10.53-13.4,15.57c-0.95,1.02-1.95,1.66-2.92,2c-1.12,0.39-2.21,0.36-3.18,0.05c-0.45-0.15-0.87-0.35-1.25-0.61 c-0.39-0.26-0.74-0.58-1.05-0.93l-0.01-0.01c-0.3-0.35-0.55-0.73-0.75-1.15c-0.2-0.41-0.35-0.86-0.43-1.31l0-0.02 c-0.17-0.96-0.07-1.99,0.4-2.96c0.41-0.87,1.1-1.69,2.13-2.38L59.17,74.26L59.17,74.26z M35.08,107.92 c-0.95-0.89-1.85-1.83-2.71-2.82c-0.86-0.99-1.67-2.03-2.42-3.1c-0.75-1.07-1.45-2.17-2.08-3.31c-0.63-1.13-1.21-2.31-1.74-3.52 c-0.51-1.18-0.97-2.4-1.36-3.65c-0.39-1.24-0.72-2.5-0.99-3.79l0-0.02c-0.26-1.27-0.46-2.55-0.59-3.86c-0.13-1.29-0.2-2.6-0.2-3.9 c0-2.56,0.25-5.07,0.73-7.5c0.49-2.49,1.23-4.9,2.18-7.2c0.97-2.34,2.17-4.57,3.56-6.65c1.4-2.1,3.01-4.05,4.79-5.83 c1.78-1.78,3.73-3.39,5.84-4.8c2.08-1.39,4.3-2.58,6.64-3.55c2.3-0.95,4.71-1.69,7.2-2.18c2.43-0.48,4.94-0.73,7.5-0.73 c2.56,0,5.06,0.25,7.48,0.73c2.49,0.49,4.89,1.23,7.18,2.18c2.34,0.97,4.56,2.16,6.63,3.56c2.11,1.41,4.07,3.03,5.85,4.81 c1.78,1.78,3.39,3.74,4.81,5.85c1.4,2.08,2.59,4.31,3.57,6.65c0.96,2.3,1.7,4.71,2.19,7.19c0.48,2.42,0.74,4.92,0.74,7.48 c0,1.25-0.06,2.49-0.18,3.73c-0.12,1.26-0.31,2.49-0.54,3.69c-0.24,1.21-0.54,2.42-0.9,3.61c-0.36,1.2-0.79,2.38-1.26,3.53 c-0.48,1.16-1.02,2.29-1.61,3.4c-0.59,1.1-1.23,2.17-1.92,3.2c-0.69,1.04-1.44,2.04-2.23,3.01c-0.79,0.97-1.64,1.91-2.53,2.81 c-0.16,0.16-0.37,0.24-0.58,0.24c-0.21,0-0.42-0.08-0.58-0.24l-1.83-1.83c-0.06-0.04-0.11-0.08-0.16-0.13l-5.29-5.28 c-0.16-0.16-0.24-0.37-0.24-0.58c0-0.21,0.08-0.42,0.24-0.58l2.77-2.77c0.16-0.16,0.37-0.24,0.58-0.24c0.21,0,0.42,0.08,0.58,0.24 l3.66,3.66c0.3-0.4,0.59-0.82,0.88-1.25c0.39-0.58,0.76-1.17,1.11-1.75c0.37-0.63,0.73-1.29,1.06-1.96 c0.34-0.68,0.65-1.37,0.94-2.07l0.01-0.02c0.39-0.95,0.74-1.92,1.04-2.9c0.3-0.97,0.55-1.97,0.75-2.97 c0.19-0.94,0.35-1.91,0.45-2.89c0.09-0.81,0.15-1.63,0.18-2.44h-5.1c-0.22,0-0.43-0.09-0.58-0.24c-0.15-0.15-0.24-0.35-0.24-0.58 v-3.92c0-0.23,0.09-0.43,0.24-0.58c0.15-0.15,0.35-0.24,0.58-0.24h4.83c-0.21-1.56-0.53-3.08-0.95-4.57 c-0.49-1.71-1.11-3.36-1.84-4.93c-0.75-1.6-1.63-3.14-2.63-4.59c-0.9-1.32-1.9-2.58-2.98-3.76l-3.24,3.24 C82.22,61.11,82,61.2,81.8,61.2c-0.21,0-0.42-0.08-0.58-0.24l-2.82-2.82c-0.13-0.15-0.2-0.34-0.2-0.53c0-0.21,0.08-0.42,0.24-0.58 l3.08-3.08c-1.22-0.95-2.52-1.82-3.87-2.59c-1.5-0.86-3.08-1.6-4.71-2.22l-0.02-0.01c-1.61-0.6-3.27-1.08-4.98-1.43 c-1.51-0.3-3.06-0.51-4.64-0.59v4.42c0,0.22-0.09,0.43-0.24,0.58c-0.15,0.15-0.35,0.24-0.58,0.24h-3.93 c-0.22,0-0.43-0.09-0.58-0.24c-0.15-0.15-0.24-0.35-0.24-0.58v-4.27c-1.55,0.17-3.08,0.46-4.56,0.84c-1.7,0.44-3.35,1.02-4.93,1.71 c-1.6,0.7-3.14,1.53-4.6,2.47c-1.32,0.85-2.58,1.8-3.76,2.82l3.24,3.24c0.16,0.16,0.24,0.37,0.24,0.58c0,0.21-0.08,0.42-0.24,0.58 l-2.82,2.82c-0.15,0.13-0.34,0.2-0.53,0.2c-0.21,0-0.42-0.08-0.58-0.24l-3.18-3.18c-1,1.22-1.92,2.52-2.74,3.88 c-0.91,1.5-1.7,3.08-2.35,4.73l-0.01,0.02c-0.64,1.62-1.16,3.31-1.55,5.04c-0.34,1.52-0.57,3.09-0.69,4.68h5.03 c0.22,0,0.43,0.09,0.58,0.24c0.15,0.15,0.24,0.35,0.24,0.58v3.93c0,0.22-0.09,0.43-0.24,0.58c-0.15,0.15-0.35,0.24-0.58,0.24H28.7 c0.07,0.71,0.15,1.41,0.26,2.09c0.14,0.87,0.31,1.72,0.51,2.57l0,0.02c0.21,0.89,0.47,1.78,0.76,2.65c0.3,0.9,0.63,1.77,1,2.62 c0.31,0.72,0.65,1.44,1.03,2.16l0.02,0.04c0.37,0.7,0.76,1.38,1.17,2.05c0.38,0.62,0.8,1.25,1.25,1.87l0.02,0.03 c0.32,0.44,0.64,0.87,0.98,1.29l4.07-4.07c0.16-0.16,0.37-0.24,0.58-0.24c0.21,0,0.42,0.08,0.58,0.24l2.82,2.82 c0.13,0.15,0.2,0.34,0.2,0.53c0,0.21-0.08,0.42-0.24,0.58l-0.03,0.03c-1.27,1.27-2.51,2.51-3.74,3.76 c-1.23,1.25-2.45,2.52-3.69,3.83l-0.01,0.01c-0.15,0.16-0.35,0.24-0.56,0.25c-0.2,0.01-0.41-0.06-0.57-0.21L35.08,107.92 L35.08,107.92z M106.72,6.7c2.26,0,4.09,1.83,4.09,4.09c0,2.26-1.83,4.09-4.09,4.09s-4.09-1.83-4.09-4.09 C102.63,8.53,104.46,6.7,106.72,6.7L106.72,6.7L106.72,6.7z M79.01,6.7c2.26,0,4.09,1.83,4.09,4.09c0,2.26-1.83,4.09-4.09,4.09 c-2.26,0-4.09-1.83-4.09-4.09C74.91,8.53,76.74,6.7,79.01,6.7L79.01,6.7L79.01,6.7z M92.86,6.7c2.26,0,4.09,1.83,4.09,4.09 c0,2.26-1.83,4.09-4.09,4.09c-2.26,0-4.09-1.83-4.09-4.09C88.77,8.53,90.6,6.7,92.86,6.7L92.86,6.7L92.86,6.7z"/></g></svg>